<svg  viewBox="0 0 940 532" fill="none" xmlns="http://www.w3.org/2000/svg">
<g id="Desktop - 1">
<g id="Group" filter="url(#filter0_d)">
<path id="L" d="M433.589 345.77L426.491 342.339L428.841 337.477L442.292 343.979L431.247 366.83L424.894 363.759L433.589 345.77Z" fill="black"/>
<path id="O" d="M414.055 324.827C415.707 326.535 416.828 328.488 417.419 330.688C417.993 332.904 417.982 335.119 417.385 337.332C416.754 339.545 415.541 341.519 413.747 343.254C411.953 344.99 409.948 346.127 407.733 346.667C405.483 347.207 403.269 347.145 401.091 346.48C398.912 345.816 396.997 344.63 395.346 342.922C393.677 341.197 392.555 339.243 391.981 337.061C391.39 334.862 391.409 332.655 392.04 330.442C392.654 328.246 393.858 326.28 395.652 324.545C397.446 322.81 399.46 321.664 401.693 321.107C403.908 320.567 406.114 320.621 408.309 321.269C410.488 321.933 412.403 323.119 414.055 324.827ZM409.345 329.382C408.094 328.088 406.687 327.479 405.124 327.555C403.544 327.613 402.047 328.327 400.633 329.695C399.184 331.096 398.412 332.577 398.318 334.137C398.19 335.696 398.752 337.123 400.003 338.417C401.271 339.728 402.687 340.346 404.25 340.27C405.795 340.211 407.293 339.481 408.742 338.079C410.173 336.694 410.953 335.222 411.081 333.663C411.192 332.12 410.613 330.693 409.345 329.382Z" fill="black"/>
<path id="A" d="M391.115 295.014L394.245 303.452L398.602 303.295L401.181 310.249L374.167 310.399L371.338 302.771L391.93 285.305L394.521 292.292L391.115 295.014ZM386.666 298.545L379.921 303.965L388.556 303.642L386.666 298.545Z" fill="black"/>
<path id="D" d="M366.16 266.629C366.283 263.968 366.93 261.668 368.1 259.728C369.248 257.762 370.806 256.285 372.774 255.294C374.741 254.304 376.96 253.866 379.429 253.98C381.875 254.092 384.031 254.745 385.898 255.936C387.766 257.103 389.205 258.719 390.215 260.784C391.202 262.824 391.635 265.162 391.513 267.799L391.05 277.833L365.697 276.663L366.16 266.629ZM385.267 268.052C385.362 265.99 384.873 264.346 383.801 263.119C382.728 261.892 381.161 261.231 379.099 261.136C377.013 261.04 375.38 261.553 374.199 262.676C372.994 263.797 372.344 265.389 372.249 267.451L372.136 269.896L385.154 270.497L385.267 268.052Z" fill="black"/>
<path id="I" d="M373.431 231.522L397.284 240.191L394.874 246.822L371.02 238.153L373.431 231.522Z" fill="black"/>
<path id="N" d="M414.95 212.729L410.64 218.315L393.67 217.089L404.9 225.754L400.589 231.34L380.496 215.835L384.806 210.249L401.919 211.585L390.547 202.81L394.857 197.224L414.95 212.729Z" fill="black"/>
<path id="G" d="M427.523 184.137C426.84 183.747 426.097 183.569 425.292 183.603C424.509 183.626 423.698 183.87 422.858 184.335C421.305 185.196 420.356 186.381 420.012 187.889C419.689 189.385 419.999 190.983 420.941 192.683C422 194.593 423.281 195.791 424.784 196.274C426.297 196.726 427.966 196.445 429.792 195.433C431.954 194.234 432.956 192.403 432.797 189.939L426.595 193.377L424.133 188.938L435.657 182.55L438.974 188.532C439.142 189.975 439.04 191.473 438.665 193.025C438.312 194.565 437.608 196.067 436.553 197.53C435.486 198.972 434.04 200.199 432.213 201.212C429.988 202.445 427.753 203.066 425.509 203.076C423.273 203.053 421.212 202.453 419.325 201.277C417.447 200.067 415.897 198.361 414.675 196.157C413.465 193.974 412.851 191.776 412.832 189.564C412.822 187.319 413.406 185.253 414.582 183.366C415.747 181.458 417.442 179.887 419.667 178.654C422.459 177.106 425.14 176.498 427.711 176.829C430.282 177.16 432.434 178.368 434.166 180.454L427.523 184.137Z" fill="black"/>
<path id="P" d="M482.635 174.485C482.606 176.02 482.22 177.418 481.477 178.676C480.758 179.911 479.671 180.899 478.217 181.64C476.788 182.358 475.041 182.697 472.978 182.659L469.486 182.595L469.328 191.161L462.273 191.03L462.743 165.655L473.289 165.85C475.329 165.888 477.05 166.28 478.452 167.026C479.878 167.772 480.94 168.788 481.636 170.073C482.332 171.359 482.665 172.829 482.635 174.485ZM472.398 177.032C474.389 177.068 475.402 176.175 475.436 174.351C475.47 172.504 474.491 171.561 472.5 171.525L469.692 171.473L469.59 176.98L472.398 177.032Z" fill="black"/>
<path id="R" d="M501.492 197.574L500.182 187.024L499.477 186.751L496.089 195.476L489.511 192.922L498.698 169.263L509.068 173.289C510.969 174.028 512.45 174.989 513.509 176.172C514.577 177.334 515.221 178.626 515.441 180.05C515.669 181.452 515.505 182.869 514.949 184.301C514.323 185.911 513.324 187.158 511.952 188.041C510.61 188.911 508.989 189.273 507.089 189.127L508.841 200.427L501.492 197.574ZM501.223 182.254L504.478 183.518C505.373 183.865 506.127 183.913 506.739 183.662C507.352 183.41 507.815 182.882 508.127 182.077C508.423 181.316 508.418 180.632 508.113 180.024C507.839 179.403 507.266 178.923 506.394 178.584L503.139 177.32L501.223 182.254Z" fill="black"/>
<path id="O_2" d="M524.138 212.801C522.415 211.165 521.21 209.261 520.525 207.089C519.857 204.9 519.774 202.686 520.275 200.449C520.811 198.211 521.938 196.187 523.656 194.377C525.374 192.566 527.329 191.344 529.519 190.709C531.743 190.074 533.958 190.042 536.163 190.612C538.368 191.183 540.332 192.286 542.055 193.921C543.796 195.573 545 197.477 545.668 199.633C546.353 201.805 546.427 204.01 545.892 206.248C545.372 208.468 544.254 210.484 542.536 212.294C540.817 214.105 538.855 215.336 536.648 215.988C534.458 216.622 532.252 216.663 530.03 216.11C527.826 215.539 525.861 214.436 524.138 212.801ZM528.648 208.048C529.954 209.287 531.386 209.835 532.944 209.693C534.519 209.567 535.984 208.79 537.339 207.362C538.727 205.9 539.434 204.388 539.461 202.825C539.522 201.262 538.9 199.861 537.594 198.621C536.271 197.366 534.831 196.809 533.273 196.952C531.731 197.077 530.267 197.871 528.879 199.333C527.507 200.778 526.791 202.282 526.73 203.846C526.686 205.392 527.325 206.792 528.648 208.048Z" fill="black"/>
<path id="D_2" d="M565.518 227.703C566.565 230.152 566.984 232.505 566.774 234.761C566.596 237.03 565.837 239.039 564.496 240.787C563.155 242.535 561.349 243.895 559.076 244.867C556.825 245.829 554.6 246.181 552.4 245.92C550.21 245.682 548.211 244.854 546.404 243.434C544.627 242.027 543.22 240.11 542.182 237.683L538.233 228.448L561.568 218.468L565.518 227.703ZM547.696 234.737C548.508 236.635 549.663 237.903 551.163 238.541C552.662 239.178 554.361 239.091 556.259 238.28C558.178 237.459 559.426 236.286 560 234.761C560.597 233.227 560.49 231.511 559.678 229.613L558.716 227.362L546.733 232.487L547.696 234.737Z" fill="black"/>
<path id="U" d="M574.402 264.333L559.68 264.558C558.312 264.579 557.261 264.907 556.526 265.542C555.792 266.201 555.435 267.179 555.455 268.475C555.474 269.77 555.861 270.737 556.615 271.373C557.393 272.033 558.454 272.353 559.798 272.333L574.52 272.108L574.628 279.164L559.906 279.388C557.578 279.423 555.579 278.962 553.908 278.003C552.261 277.044 551.005 275.719 550.139 274.028C549.297 272.361 548.861 270.495 548.829 268.432C548.798 266.368 549.178 264.514 549.969 262.87C550.784 261.249 552.001 259.958 553.618 258.997C555.236 258.061 557.221 257.574 559.573 257.539L574.295 257.314L574.402 264.333Z" fill="black"/>
<path id="C" d="M560.079 292.001C562.397 292.926 564.268 294.228 565.691 295.907C567.127 297.618 567.991 299.565 568.282 301.748C568.595 303.941 568.289 306.196 567.364 308.514C566.189 311.456 564.41 313.615 562.027 314.989C559.666 316.372 557.021 316.815 554.093 316.318L556.909 309.263C557.97 309.196 558.885 308.877 559.656 308.306C560.418 307.757 560.994 306.992 561.386 306.011C561.991 304.496 561.93 303.063 561.202 301.713C560.488 300.394 559.229 299.375 557.423 298.654C555.595 297.924 553.957 297.787 552.509 298.243C551.075 298.73 550.055 299.731 549.45 301.247C549.058 302.227 548.95 303.179 549.124 304.101C549.29 305.046 549.734 305.908 550.456 306.687L547.64 313.742C545.174 312.086 543.55 309.939 542.769 307.301C542.009 304.672 542.217 301.887 543.391 298.944C544.317 296.626 545.637 294.776 547.352 293.393C549.089 292.019 551.056 291.202 553.253 290.942C555.463 290.713 557.739 291.066 560.079 292.001Z" fill="black"/>
<path id="T" d="M539.602 348.432L535.493 344.604L540.108 339.652L525.649 326.178L530.46 321.016L544.918 334.49L549.484 329.592L553.592 333.421L539.602 348.432Z" fill="black"/>
<path id="S" d="M506.563 339.667C509.18 338.301 511.651 337.796 513.976 338.153C516.312 338.531 518.149 339.846 519.487 342.098L512.817 345.58C512.342 344.826 511.808 344.374 511.215 344.223C510.622 344.072 510.007 344.164 509.368 344.497C508.794 344.797 508.398 345.179 508.181 345.645C507.953 346.143 507.973 346.647 508.239 347.157C508.584 347.817 509.159 348.166 509.964 348.206C510.77 348.246 511.981 348.128 513.597 347.853C515.321 347.576 516.757 347.422 517.905 347.391C519.043 347.393 520.18 347.652 521.316 348.169C522.442 348.718 523.377 349.706 524.121 351.131C524.876 352.578 525.159 354.001 524.968 355.4C524.789 356.82 524.2 358.129 523.201 359.327C522.202 360.525 520.894 361.546 519.278 362.391C516.661 363.757 514.254 364.228 512.056 363.805C509.849 363.414 508.114 362.14 506.853 359.983L513.651 356.434C514.027 357.104 514.507 357.504 515.088 357.633C515.649 357.774 516.238 357.683 516.855 357.361C517.323 357.116 517.634 356.778 517.787 356.346C517.941 355.914 517.884 355.443 517.618 354.932C517.396 354.507 517.042 354.217 516.556 354.065C516.06 353.945 515.506 353.895 514.895 353.917C514.294 353.959 513.427 354.061 512.292 354.22C510.611 354.475 509.185 354.596 508.015 354.584C506.834 354.605 505.687 354.351 504.572 353.823C503.447 353.328 502.54 352.42 501.851 351.101C501.152 349.761 500.864 348.381 500.99 346.962C501.094 345.554 501.624 344.208 502.578 342.925C503.511 341.652 504.839 340.566 506.563 339.667Z" fill="black"/>
</g>
</g>
<defs>
<filter id="filter0_d" x="361.697" y="165.655" width="216.93" height="209.175" filterUnits="userSpaceOnUse" color-interpolation-filters="sRGB">
<feFlood flood-opacity="0" result="BackgroundImageFix"/>
<feColorMatrix in="SourceAlpha" type="matrix" values="0 0 0 0 0 0 0 0 0 0 0 0 0 0 0 0 0 0 127 0"/>
<feOffset dy="4"/>
<feColorMatrix type="matrix" values="0 0 0 0 1 0 0 0 0 1 0 0 0 0 1 0 0 0 1 0"/>
<feBlend mode="normal" in2="BackgroundImageFix" result="effect1_dropShadow"/>
<feBlend mode="normal" in="SourceGraphic" in2="effect1_dropShadow" result="shape"/>
</filter>
</defs>
</svg>
