<svg viewBox="0 0 940 532" fill="none" xmlns="http://www.w3.org/2000/svg">
<g id="Desktop - 1">
<g id="back-cloud">
<path id="Union" fill-rule="evenodd" clip-rule="evenodd" d="M554.768 356.5C544.198 356.5 534.217 353.977 525.395 349.5H406.142C397.32 353.977 387.339 356.5 376.768 356.5C340.87 356.5 311.768 327.399 311.768 291.5C311.768 255.601 340.87 226.5 376.768 226.5C380.138 226.5 383.448 226.756 386.679 227.251C397.984 196.464 427.561 174.5 462.268 174.5C497.478 174.5 527.409 197.105 538.338 228.595C543.586 227.228 549.092 226.5 554.768 226.5C590.667 226.5 619.768 255.601 619.768 291.5C619.768 327.399 590.667 356.5 554.768 356.5Z" fill="#DDE7EE"/>
<path id="Union_2" fill-rule="evenodd" clip-rule="evenodd" d="M432.162 189.597C448.53 182.062 467.127 180.939 484.283 186.448C501.438 191.957 515.904 203.699 524.825 219.354C533.746 235.009 536.472 253.439 532.467 271.007C531.423 275.584 534.287 280.14 538.864 281.184C543.441 282.227 547.998 279.363 549.041 274.786C552.03 261.68 551.987 248.184 549.058 235.289C554.459 234.741 559.924 234.972 565.283 235.987C573.185 237.484 580.677 240.65 587.257 245.275C593.837 249.899 599.353 255.875 603.438 262.803C607.523 269.731 610.082 277.451 610.943 285.448C611.805 293.444 610.949 301.532 608.434 309.171C605.919 316.81 601.801 323.824 596.358 329.744C590.914 335.664 584.269 340.353 576.867 343.499C569.465 346.645 561.477 348.174 553.437 347.984C553.181 347.978 552.927 347.984 552.675 348H376.769C376.318 348 375.875 348.035 375.444 348.103C375.016 348.015 374.575 347.959 374.125 347.938C366.497 347.581 359.021 345.681 352.147 342.353C345.274 339.025 339.147 334.339 334.135 328.576C329.124 322.814 325.333 316.096 322.991 308.827C320.649 301.559 319.805 293.891 320.51 286.287C321.214 278.683 323.453 271.301 327.091 264.586C330.728 257.872 335.689 251.964 341.674 247.221C347.659 242.478 354.543 238.997 361.911 236.989C369.279 234.98 376.977 234.487 384.541 235.537C388.491 236.086 392.183 233.826 393.601 230.283C394.562 229.453 395.351 228.393 395.876 227.143C402.847 210.528 415.795 197.131 432.162 189.597ZM375.053 364.827C374.494 364.914 373.917 364.947 373.33 364.92C363.407 364.455 353.68 361.983 344.739 357.654C335.798 353.325 327.827 347.228 321.308 339.732C314.789 332.236 309.857 323.496 306.81 314.041C303.764 304.585 302.665 294.61 303.582 284.718C304.499 274.826 307.411 265.223 312.143 256.488C316.876 247.753 323.329 240.069 331.115 233.898C338.9 227.727 347.856 223.199 357.441 220.587C365.206 218.47 373.253 217.647 381.261 218.137C390.095 198.724 405.625 183.097 425.054 174.154C445.286 164.841 468.275 163.452 489.481 170.262C510.687 177.072 528.568 191.586 539.595 210.937C541.066 213.518 542.401 216.161 543.598 218.854C551.83 217.588 560.234 217.728 568.447 219.284C578.727 221.231 588.472 225.35 597.032 231.366C605.592 237.382 612.768 245.156 618.082 254.169C623.396 263.181 626.725 273.224 627.846 283.626C628.966 294.029 627.853 304.55 624.581 314.488C621.309 324.425 615.953 333.55 608.871 341.251C601.789 348.952 593.145 355.053 583.516 359.145C574.19 363.108 564.149 365.099 554.023 364.996C553.938 364.999 553.854 365 553.769 365H376.769C376.181 365 375.607 364.94 375.053 364.827Z" fill="#323456"/>
<path id="Union_3" opacity="0.1" fill-rule="evenodd" clip-rule="evenodd" d="M566.119 227.856C559.266 226.558 552.215 226.738 545.437 228.384C536.85 230.469 528.198 225.198 526.113 216.611C524.028 208.024 529.298 199.373 537.885 197.287C549.09 194.567 560.746 194.269 572.074 196.415C583.403 198.561 594.143 203.1 603.576 209.73C613.009 216.36 620.918 224.927 626.774 234.859C632.63 244.791 636.299 255.859 637.534 267.323C638.769 278.786 637.542 290.382 633.936 301.333C630.33 312.285 624.428 322.34 616.623 330.827C608.819 339.314 599.293 346.037 588.681 350.547C578.07 355.057 566.618 357.249 555.091 356.977C546.257 356.769 539.264 349.439 539.472 340.605C539.681 331.771 547.011 324.778 555.845 324.986C562.818 325.151 569.746 323.824 576.165 321.096C582.584 318.368 588.347 314.301 593.068 309.167C597.79 304.033 601.36 297.95 603.542 291.325C605.723 284.7 606.465 277.685 605.718 270.751C604.971 263.816 602.752 257.121 599.209 251.112C595.666 245.104 590.882 239.921 585.175 235.911C579.469 231.9 572.972 229.154 566.119 227.856Z" fill="black"/>
</g>
</g>
</svg>
