<svg viewBox="0 0 940 532" fill="none" xmlns="http://www.w3.org/2000/svg">
<g id="Desktop - 1">
<g id="bottom-cloud">
<path id="Union" fill-rule="evenodd" clip-rule="evenodd" d="M583.255 371C591.032 374.222 599.558 376 608.5 376C644.951 376 674.5 346.451 674.5 310C674.5 273.549 644.951 244 608.5 244C600.507 244 592.846 245.421 585.756 248.024C579.595 196.745 535.939 157 483 157C443.067 157 408.417 179.615 391.156 212.736C379.625 207.139 366.679 204 353 204C304.675 204 265.5 243.175 265.5 291.5C265.5 339.825 304.675 379 353 379C366.068 379 378.466 376.135 389.602 371H583.255Z" fill="#DDE7EE"/>
<path id="Union_2" fill-rule="evenodd" clip-rule="evenodd" d="M459.967 150.669C489.361 144.825 519.873 150.898 544.79 167.551C568.083 183.118 584.703 206.74 591.544 233.767C599.706 232.273 608.073 232.096 616.325 233.26C627.248 234.8 637.717 238.656 647.031 244.567C656.345 250.479 664.29 258.311 670.333 267.54C676.377 276.769 680.382 287.181 682.078 298.082C683.775 308.982 683.124 320.12 680.171 330.749C677.217 341.378 672.029 351.254 664.952 359.716C657.875 368.179 649.073 375.033 639.134 379.821C629.196 384.609 618.349 387.219 607.321 387.479C607.293 387.479 607.265 387.48 607.237 387.48C607.199 387.481 607.16 387.481 607.121 387.481H353.574C353.384 387.494 353.193 387.5 353 387.5C340 387.5 327.136 384.86 315.187 379.739C303.238 374.619 292.453 367.125 283.487 357.712C274.521 348.299 267.56 337.162 263.027 324.979C258.493 312.795 256.482 299.817 257.114 286.833C257.342 282.144 261.328 278.528 266.017 278.756C270.706 278.984 274.322 282.97 274.093 287.659C273.573 298.345 275.229 309.024 278.96 319.05C282.69 329.076 288.418 338.24 295.797 345.987C303.175 353.733 312.05 359.9 321.883 364.113C331.417 368.199 341.66 370.366 352.025 370.494C352.182 370.485 352.341 370.481 352.5 370.481H607.018C615.594 370.266 624.027 368.229 631.756 364.505C639.515 360.768 646.386 355.417 651.911 348.811C657.435 342.204 661.486 334.495 663.791 326.197C666.097 317.9 666.605 309.206 665.28 300.696C663.956 292.187 660.83 284.058 656.112 276.854C651.394 269.649 645.192 263.535 637.921 258.92C630.65 254.305 622.478 251.296 613.95 250.093C605.423 248.89 596.737 249.522 588.473 251.945C584.156 253.212 579.639 250.894 578.107 246.735C577.151 245.648 576.46 244.303 576.157 242.782C571.193 217.809 556.512 195.832 535.343 181.685C514.175 167.537 488.254 162.378 463.282 167.343C438.309 172.307 416.332 186.988 402.185 208.156C388.037 229.325 382.878 255.246 387.842 280.218C388.758 284.823 385.767 289.297 381.163 290.213C376.559 291.128 372.084 288.137 371.169 283.533C366.665 260.88 369.239 237.562 378.279 216.654C373.988 215.205 369.579 214.126 365.098 213.432C360.459 212.713 357.281 208.369 358 203.73C358.719 199.091 363.063 195.914 367.702 196.632C374.04 197.615 380.262 199.229 386.275 201.451C386.853 200.531 387.445 199.617 388.051 198.71C404.704 173.793 430.573 156.512 459.967 150.669ZM339.659 213.634C344.286 212.842 347.395 208.448 346.602 203.821C345.809 199.194 341.416 196.086 336.789 196.879C319.777 199.793 303.865 207.24 290.729 218.436C277.593 229.632 267.718 244.162 262.144 260.497C260.628 264.94 263 269.77 267.443 271.287C271.886 272.803 276.717 270.43 278.233 265.987C282.82 252.545 290.946 240.588 301.756 231.374C312.566 222.161 325.66 216.033 339.659 213.634Z" fill="#323456"/>
<path id="Union_3" opacity="0.1" d="M671.2 279.5C671.2 257 651.2 236.024 630.2 232C609.2 227.976 614.546 233.421 607.455 236.024C601.294 184.745 557.639 145 504.7 145C464.767 145 430.116 167.615 412.856 200.736C401.325 195.139 388.379 192 374.7 192C326.375 192 287.2 231.175 287.2 279.5C287.2 327.825 326.375 367 374.7 367" stroke="black" stroke-width="32" stroke-linecap="round" stroke-linejoin="round"/>
</g>
</g>
</svg>
