<svg viewBox="0 0 940 532" fill="none" xmlns="http://www.w3.org/2000/svg">
<g id="Desktop - 1">
<g id="main-cloud">
<path id="Union" fill-rule="evenodd" clip-rule="evenodd" d="M657.785 205.603C633.821 136.562 568.199 87 491 87C436.579 87 387.911 111.63 355.535 150.35C335.416 136.265 310.923 128 284.5 128C216.017 128 160.5 183.517 160.5 252C160.5 255.433 160.64 258.834 160.913 262.197C121.877 274.191 93.5 310.532 93.5 353.5C93.5 406.243 136.257 449 189 449C191.865 449 194.7 448.874 197.5 448.627V449H710.5V448.999C710.667 449 710.834 449 711 449C781.417 449 838.5 391.916 838.5 321.5C838.5 251.084 781.417 194 711 194C692.005 194 673.981 198.154 657.785 205.603Z" fill="#8EB1C6"/>
<path id="Union_2" fill-rule="evenodd" clip-rule="evenodd" d="M425.347 108.86C449.772 98.4898 476.307 94.0532 502.777 95.9133C529.247 97.7734 554.9 105.877 577.635 119.561C600.37 133.245 619.54 152.12 633.576 174.64C636.059 178.624 641.301 179.841 645.285 177.358C649.269 174.875 650.486 169.632 648.003 165.648C632.547 140.849 611.437 120.065 586.402 104.996C561.366 89.9274 533.117 81.0035 503.968 78.9551C474.82 76.9068 445.6 81.7923 418.703 93.2115C394.034 103.685 371.963 119.381 353.993 139.186C334.163 126.971 311.443 120.186 288.117 119.549C263.528 118.878 239.237 125.065 217.965 137.417C196.692 149.769 179.278 167.799 167.673 189.488C156.068 211.177 150.729 235.668 152.255 260.219C152.546 264.905 156.581 268.467 161.266 268.176C165.951 267.885 169.514 263.85 169.222 259.165C167.892 237.764 172.546 216.415 182.662 197.509C192.779 178.602 207.958 162.886 226.501 152.118C245.044 141.351 266.219 135.958 287.653 136.543C309.088 137.128 329.936 143.669 347.864 155.432C348.574 155.898 349.328 156.244 350.102 156.475C350.16 156.526 350.219 156.577 350.278 156.627C353.876 159.643 359.237 159.171 362.253 155.573C379.3 135.238 400.921 119.23 425.347 108.86ZM138.658 282.545C142.487 279.828 143.388 274.522 140.672 270.694C137.956 266.865 132.65 265.964 128.821 268.68C110.525 281.661 96.9169 300.21 90.027 321.559C88.5852 326.026 91.0381 330.817 95.5056 332.258C99.9731 333.7 104.764 331.247 106.205 326.78C111.969 308.921 123.353 293.404 138.658 282.545ZM102 353.5C102 348.806 98.1944 345 93.5 345C88.8056 345 85 348.806 85 353.5C85 381.083 95.9571 407.535 115.461 427.039C133.806 445.384 158.298 456.167 184.095 457.384C184.552 457.46 185.022 457.5 185.5 457.5H189H710.954C710.985 457.5 711.016 457.5 711.046 457.5H713.5C713.784 457.5 714.064 457.486 714.341 457.459C733.511 456.988 752.379 452.468 769.701 444.179C788.112 435.37 804.304 422.529 817.077 406.61C829.85 390.691 838.876 372.101 843.486 352.218C848.096 332.336 848.172 311.671 843.708 291.755C839.244 271.839 830.354 253.183 817.699 237.171C805.043 221.158 788.946 208.199 770.6 199.255C752.255 190.311 732.131 185.61 711.721 185.502C691.312 185.394 671.139 189.881 652.7 198.63C648.458 200.642 646.652 205.712 648.664 209.953C650.677 214.194 655.746 216.001 659.987 213.989C676.122 206.333 693.773 202.407 711.631 202.502C729.49 202.596 747.098 206.709 763.15 214.536C779.203 222.362 793.288 233.701 804.362 247.712C815.435 261.723 823.213 278.047 827.119 295.473C831.025 312.899 830.959 330.981 826.925 348.379C822.891 365.776 814.994 382.042 803.817 395.971C792.641 409.901 778.473 421.136 762.364 428.844C746.335 436.514 728.794 440.496 711.028 440.5C711.009 440.5 710.991 440.5 710.973 440.5C710.901 440.5 710.829 440.5 710.758 440.5C710.729 440.5 710.701 440.5 710.672 440.5H189C165.926 440.5 143.797 431.334 127.482 415.018C111.166 398.703 102 376.574 102 353.5Z" fill="#323456"/>
<path id="Union_3" opacity="0.1" fill-rule="evenodd" clip-rule="evenodd" d="M530.223 104.724C504.692 102.291 478.95 106.012 455.153 115.576C431.356 125.139 410.197 140.265 393.449 159.688C387.678 166.38 377.575 167.128 370.883 161.357C364.191 155.586 363.444 145.483 369.215 138.791C389.302 115.496 414.679 97.3533 443.22 85.8835C471.762 74.4136 502.636 69.9504 533.258 72.8678C563.879 75.7851 593.355 85.998 619.217 102.651C643.172 118.076 663.381 138.611 678.411 162.749C697.114 158.388 716.594 157.805 735.692 161.14C763.65 166.024 789.532 179.088 810.066 198.682C830.599 218.275 844.861 243.517 851.049 271.216C857.236 298.915 855.071 327.827 844.827 354.295C841.637 362.536 832.371 366.631 824.13 363.441C815.89 360.252 811.795 350.986 814.984 342.745C822.944 322.179 824.626 299.714 819.818 278.192C815.011 256.67 803.929 237.057 787.975 221.833C772.02 206.609 751.909 196.458 730.186 192.663C708.462 188.869 686.101 191.601 665.93 200.515C657.848 204.087 648.4 200.43 644.828 192.348C642.105 186.186 643.583 179.231 648.021 174.69C635.882 156.711 620.2 141.344 601.893 129.556C580.33 115.671 555.754 107.156 530.223 104.724ZM137.322 280.239C144.533 285.347 146.237 295.333 141.129 302.544C132.7 314.442 127.706 328.428 126.693 342.974C125.679 357.52 128.685 372.064 135.383 385.015C142.08 397.967 152.21 408.828 164.665 416.409C177.12 423.99 191.42 428 206 428C214.837 428 222 435.163 222 444C222 452.837 214.837 460 206 460C185.551 460 165.495 454.376 148.026 443.743C130.558 433.11 116.351 417.878 106.958 399.713C97.565 381.548 93.3486 361.15 94.7701 340.75C96.1915 320.349 103.196 300.733 115.017 284.046C120.125 276.835 130.112 275.131 137.322 280.239Z" fill="black"/>
</g>
</g>
</svg>
