<svg width="1046" height="1010" viewBox="0 0 1046 1010" fill="none" xmlns="http://www.w3.org/2000/svg">
<g id="Desktop - 1" clip-path="url(#clip0)">
<path id="main" d="M185.152 11H1047V922.843C1047 922.843 930.622 805.433 724.218 877.854C517.814 950.275 381.675 1036.96 304.823 985.388C237.795 940.409 399.96 824.249 333.368 784.585C224.676 719.845 4 779.099 4 666.078C4 553.058 379.479 522.334 434.374 506.972C489.269 491.61 471.702 453.205 434.374 443.33C397.046 433.454 304.823 434.552 304.823 392.855C304.823 340.185 385.038 359.493 434.374 328.115C506.835 282.029 528.793 193.149 451.94 136.09C321.594 46.2774 57.2532 11 185.152 11Z" fill="#003577"/>
<path id="shadow" d="M185.152 -8H1047V903.843C1047 903.843 930.622 786.433 724.218 858.854C517.814 931.275 381.675 1017.96 304.823 966.388C237.795 921.409 399.96 805.249 333.368 765.585C224.676 700.845 4 760.099 4 647.078C4 534.058 379.479 503.334 434.374 487.972C489.269 472.61 471.702 434.205 434.374 424.33C397.046 414.454 304.823 415.552 304.823 373.855C304.823 321.185 385.038 340.493 434.374 309.115C506.835 263.029 528.793 174.149 451.94 117.09C321.594 27.2774 57.2532 -8 185.152 -8Z" fill="#578BD9"/>
</g>
<defs>
<clipPath id="clip0">
<rect width="1046" height="1010" fill="white"/>
</clipPath>
</defs>
</svg>
