<svg width="1046" height="808" viewBox="0 0 1046 808" fill="none" xmlns="http://www.w3.org/2000/svg">
<g id="Desktop - 1" clip-path="url(#clip0)">
<path id="main" d="M185.152 -187H1047V724.843C1047 724.843 930.622 607.433 724.218 679.854C517.814 752.275 381.675 838.96 304.823 787.388C237.795 742.409 399.96 626.249 333.368 586.585C224.676 521.845 4 581.099 4 468.078C4 355.058 379.479 324.334 434.374 308.972C489.269 293.61 471.702 255.205 434.374 245.33C397.046 235.454 304.823 236.552 304.823 194.855C304.823 142.185 385.038 161.493 434.374 130.115C506.835 84.0291 528.793 -4.85088 451.94 -61.9096C321.594 -151.723 57.2532 -187 185.152 -187Z" fill="#003577"/>
<path id="shadow" d="M185.152 -206H1047V705.843C1047 705.843 930.622 588.433 724.218 660.854C517.814 733.275 381.675 819.96 304.823 768.388C237.795 723.409 399.96 607.249 333.368 567.585C224.676 502.845 4 562.099 4 449.078C4 336.058 379.479 305.334 434.374 289.972C489.269 274.61 471.702 236.205 434.374 226.33C397.046 216.454 304.823 217.552 304.823 175.855C304.823 123.185 385.038 142.493 434.374 111.115C506.835 65.0291 528.793 -23.8509 451.94 -80.9096C321.594 -170.723 57.2532 -206 185.152 -206Z" fill="#578BD9"/>
</g>
<defs>
</defs>
</svg>
