<svg viewBox="0 0 5050 5050" fill="none" xmlns="http://www.w3.org/2000/svg">
<g id="sunrays" opacity='1'>
<path id="Vector 1" d="M-5.3765e-06 2372.27L0 2675.27L2842.78 2547.17L2842.78 2504.06L-5.3765e-06 2372.27Z" fill="#FFD600"/>
<path id="Vector 3" d="M380.598 1103.61L229.098 1366.02L2755.07 2676.47L2776.62 2639.14L380.598 1103.61Z" fill="#FFD600"/>
<path id="Vector 4" d="M1448.47 231.561L1182.44 376.599L2655.67 2811.22L2693.52 2790.59L1448.47 231.561Z" fill="#FFD600"/>
<path id="Vector 10" d="M3660.63 4796.01L3923.04 4644.51L2390.71 2246.63L2353.38 2268.19L3660.63 4796.01Z" fill="#FFD600"/>
<path id="Vector 5" d="M2677.73 0H2374.73L2502.83 2842.78H2545.94L2677.73 0Z" fill="#FFD600"/>
<path id="Vector 11" d="M2372.27 5050L2675.27 5050L2547.17 2207.22L2504.06 2207.22L2372.27 5050Z" fill="#FFD600"/>
<path id="Vector 6" d="M3923.04 410.158L3660.63 258.658L2350.18 2784.63L2387.51 2806.18L3923.04 410.158Z" fill="#FFD600"/>
<path id="Vector 13" d="M1123.32 4629.73L1385.72 4781.23L2696.18 2255.26L2658.84 2233.7L1123.32 4629.73Z" fill="#FFD600"/>
<path id="Vector 7" d="M4793.54 1400.5L4642.04 1138.1L2244.17 2670.42L2265.73 2707.76L4793.54 1400.5Z" fill="#FFD600"/>
<path id="Vector 12" d="M253.732 3663.1L405.232 3925.5L2803.1 2393.18L2781.55 2355.84L253.732 3663.1Z" fill="#FFD600"/>
<path id="Vector 8" d="M5050 2675.27L5050 2372.27L2207.22 2500.37L2207.22 2543.48L5050 2675.27Z" fill="#FFD600"/>
<path id="Vector 9" d="M4686.38 3945.21L4837.88 3682.8L2311.91 2372.35L2290.36 2409.68L4686.38 3945.21Z" fill="#FFD600"/>
<circle id="Ellipse 1" cx="2525" cy="2525" r="317.78" fill="#FFD600"/>
<circle id="sunImg" cx="2525" cy="2525" r="495" fill="#E3C713" />

</g>
</svg>
