<svg viewBox="0 0 1849 1849" fill="none" xmlns="http://www.w3.org/2000/svg">
<g id="Frame">
<g id="Group">
<path id="sun3" fill-rule="evenodd" clip-rule="evenodd" d="M931.4 1476.8C856.948 1476.8 784.575 1462.15 716.292 1433.27C650.488 1405.44 591.442 1365.65 540.796 1315.01C490.155 1264.37 450.363 1205.32 422.526 1139.51C393.643 1071.23 379 998.853 379 924.401C379 849.949 393.643 777.576 422.526 709.294C450.362 643.482 490.153 584.435 540.796 533.794C591.434 483.154 650.481 443.362 716.296 415.526C784.58 386.645 856.951 372 931.4 372C1005.85 372 1078.22 386.645 1146.51 415.526C1212.31 443.36 1271.36 483.151 1322.01 533.793C1372.65 584.439 1412.44 643.488 1440.28 709.301C1469.16 777.573 1483.8 849.945 1483.8 924.401C1483.8 998.854 1469.16 1071.23 1440.27 1139.51C1412.44 1205.31 1372.65 1264.36 1322.01 1315C1271.37 1365.65 1212.32 1405.44 1146.51 1433.27C1078.22 1462.16 1005.85 1476.8 931.4 1476.8Z" fill="#FFD600" fill-opacity="0"/>
<path id="sun2" fill-rule="evenodd" clip-rule="evenodd" d="M931.4 1336.8C875.787 1336.8 821.764 1325.88 770.832 1304.33C721.71 1283.56 677.62 1253.84 639.79 1216.01C601.96 1178.18 572.245 1134.09 551.465 1084.97C529.922 1034.04 519 980.013 519 924.401C519 868.787 529.922 814.764 551.465 763.832C572.244 714.707 601.961 670.617 639.79 632.789C677.618 594.961 721.708 565.244 770.833 544.466C821.765 522.924 875.788 512 931.4 512C987.012 512 1041.04 522.924 1091.97 544.467C1141.09 565.244 1185.18 594.96 1223.01 632.789C1260.84 670.619 1290.56 714.709 1311.33 763.834C1332.88 814.764 1343.8 868.787 1343.8 924.401C1343.8 980.013 1332.88 1034.04 1311.33 1084.97C1290.56 1134.09 1260.84 1178.18 1223.01 1216.01C1185.18 1253.84 1141.09 1283.55 1091.97 1304.33C1041.04 1325.88 987.012 1336.8 931.4 1336.8Z" fill="#FFD600" fill-opacity="0"/>
<path id="sun" fill-rule="evenodd" clip-rule="evenodd" d="M931.4 1265.8C885.208 1265.8 840.359 1256.74 798.101 1238.86C757.32 1221.61 720.71 1196.94 689.287 1165.51C657.864 1134.09 633.185 1097.48 615.936 1056.7C598.062 1014.44 589 969.593 589 923.401C589 877.207 598.062 832.36 615.936 790.102C633.185 749.321 657.864 712.709 689.287 681.287C720.71 649.863 757.32 625.186 798.101 607.936C840.359 590.063 885.207 581 931.4 581C977.593 581 1022.44 590.063 1064.7 607.937C1105.48 625.186 1142.09 649.863 1173.51 681.287C1204.94 712.709 1229.62 749.321 1246.86 790.102C1264.74 832.36 1273.8 877.207 1273.8 923.401C1273.8 969.593 1264.74 1014.44 1246.86 1056.7C1229.62 1097.48 1204.94 1134.09 1173.51 1165.51C1142.09 1196.94 1105.48 1221.61 1064.7 1238.86C1022.44 1256.74 977.593 1265.8 931.4 1265.8Z" fill="#FFD600" fill-opacity="1"/>
</g>
<path id="sun4" fill-rule="evenodd" clip-rule="evenodd" d="M924.001 1651C826.033 1651 730.78 1631.72 640.888 1593.7C554.282 1557.07 476.575 1504.71 409.936 1438.07C343.303 1371.44 290.938 1293.73 254.299 1207.11C216.278 1117.22 197 1021.97 197 924.001C197 826.034 216.278 730.782 254.299 640.892C290.937 554.272 343.301 476.566 409.934 409.933C476.566 343.299 554.273 290.938 640.894 254.299C730.788 216.278 826.039 197 924.001 197C1021.96 197 1117.22 216.279 1207.11 254.3C1293.72 290.934 1371.43 343.296 1438.07 409.931C1504.71 476.571 1557.07 554.28 1593.7 640.902C1631.72 730.781 1651 826.03 1651 924.001C1651 1021.97 1631.72 1117.22 1593.7 1207.11C1557.07 1293.72 1504.71 1371.42 1438.07 1438.06C1371.44 1504.7 1293.73 1557.06 1207.11 1593.7C1117.22 1631.72 1021.97 1651 924.001 1651Z" fill="#FFD600" fill-opacity="0"/>
<path id="sun5" fill-rule="evenodd" clip-rule="evenodd" d="M924.501 1849C799.935 1849 678.8 1824.48 564.463 1776.11C454.322 1729.53 355.511 1662.95 270.782 1578.22C186.06 1493.5 119.477 1394.69 72.8825 1284.53C24.5225 1170.2 0 1049.07 0 924.501C0 799.938 24.5212 678.805 72.8839 564.468C119.475 454.312 186.058 355.501 270.782 270.778C355.503 186.058 454.314 119.476 564.47 72.8811C678.814 24.5211 799.945 0 924.501 0C1049.06 0 1170.19 24.5211 1284.53 72.8838C1394.68 119.473 1493.49 186.054 1578.22 270.777C1662.95 355.505 1729.53 454.323 1776.12 564.484C1824.48 678.807 1849 799.934 1849 924.501C1849 1049.06 1824.48 1170.2 1776.11 1284.54C1729.53 1394.68 1662.96 1493.48 1578.23 1578.21C1493.5 1662.94 1394.69 1729.53 1284.53 1776.12C1170.19 1824.48 1049.06 1849 924.501 1849Z" fill="#FFD600" fill-opacity="0"/>
</g>
</svg>
