<svg width="1128" height="834" viewBox="0 0 1128 834" fill="none" xmlns="http://www.w3.org/2000/svg">
<g id="undraw_art 1" clip-path="url(#clip0)">
<path id="Vector" d="M664.015 134.626V551.616C664.015 556.573 662.045 561.328 658.539 564.834C655.034 568.34 650.279 570.309 645.321 570.309H44.4937C42.7632 570.309 41.0497 569.968 39.451 569.306C37.8522 568.644 36.3996 567.673 35.1759 566.45C33.9523 565.226 32.9817 563.773 32.3195 562.175C31.6573 560.576 31.3164 558.862 31.3164 557.132V186.127C31.3164 163.627 40.2545 142.048 56.1644 126.138C72.0743 110.229 93.6528 101.29 116.153 101.29H630.679C635.056 101.29 639.391 102.153 643.436 103.828C647.48 105.503 651.155 107.959 654.251 111.054C657.346 114.15 659.802 117.825 661.477 121.869C663.152 125.914 664.015 130.248 664.015 134.626V134.626Z" fill="#ACB7D1"/>
<path id="Vector_2" d="M440.882 474.157C440.931 507.495 433.298 540.397 418.576 570.309H44.4937C42.7632 570.309 41.0497 569.968 39.451 569.306C37.8522 568.644 36.3996 567.673 35.1759 566.45C33.9523 565.226 32.9817 563.773 32.3195 562.175C31.6573 560.576 31.3164 558.862 31.3164 557.132V370.048C54.4586 327.45 91.1387 293.782 135.558 274.365C179.977 254.947 229.601 250.89 276.585 262.833C323.568 274.775 365.231 302.038 394.986 340.31C424.741 378.581 440.891 425.679 440.882 474.157V474.157Z" fill="#2F2E41"/>
<path id="Vector_3" d="M664.015 439.366V551.616C664.015 556.573 662.045 561.328 658.539 564.834C655.034 568.34 650.279 570.309 645.321 570.309H43.6652C40.1961 570.309 36.8691 568.931 34.4157 566.479C31.9623 564.026 30.5835 560.699 30.5825 557.23V557.097C30.5825 463.602 321.382 383.854 404.065 352.887C450.757 335.456 502.007 334.53 549.298 350.262C596.588 365.995 637.07 397.438 664.015 439.366H664.015Z" fill="#3F3D56"/>
<path id="Vector_4" d="M564.926 284.054C594.924 284.054 619.241 259.736 619.241 229.738C619.241 199.741 594.924 175.423 564.926 175.423C534.929 175.423 510.611 199.741 510.611 229.738C510.611 259.736 534.929 284.054 564.926 284.054Z" fill="#FF6584"/>
<path id="Vector_5" d="M281.361 242.2C281.361 348.149 218.377 385.143 140.681 385.143C62.9849 385.143 0 348.149 0 242.2C0 136.252 140.681 1.46796 140.681 1.46796C140.681 1.46796 281.361 136.252 281.361 242.2Z" fill="#6C63FF"/>
<path id="Vector_6" d="M135.556 368.936L136.997 280.266L196.958 170.569L137.222 266.356L137.87 226.487L179.195 147.122L138.042 215.936L139.206 144.229L183.459 81.045L139.39 132.953L140.118 1.46802L135.543 175.531L135.919 168.35L90.928 99.484L135.198 182.134L131.006 262.219L130.881 260.093L79.014 187.621L130.724 267.603L130.2 277.618L130.106 277.769L130.149 278.591L119.513 481.772H133.723L135.428 376.825L187.011 297.04L135.556 368.936Z" fill="#3F3D56"/>
<path id="Vector_7" d="M510.739 193.644C510.739 278.868 460.075 308.625 397.577 308.625C335.079 308.625 284.414 278.868 284.414 193.644C284.414 108.419 397.577 0 397.577 0C397.577 0 510.739 108.419 510.739 193.644Z" fill="#6C63FF"/>
<path id="Vector_8" d="M393.454 295.589L394.613 224.263L442.846 136.024L394.795 213.075L395.316 181.004L428.558 117.163L395.454 172.517L396.391 114.836L431.987 64.011L396.538 105.766L397.124 0L393.444 140.015L393.747 134.239L357.556 78.843L393.166 145.327L389.794 209.746L389.694 208.036L347.972 149.74L389.567 214.077L389.146 222.133L389.07 222.254L389.105 222.916L380.549 386.353H391.98L393.351 301.935L434.845 237.756L393.454 295.589Z" fill="#3F3D56"/>
<path id="Vector_9" d="M743.87 313.865C743.87 371.242 709.761 391.275 667.685 391.275C625.609 391.275 591.499 371.242 591.499 313.865C591.499 256.489 667.685 183.497 667.685 183.497C667.685 183.497 743.87 256.489 743.87 313.865Z" fill="#6C63FF"/>
<path id="Vector_10" d="M664.909 382.498L665.689 334.48L698.161 275.073L665.812 326.947L666.162 305.355L688.542 262.376L666.255 299.642L666.886 260.809L690.851 226.592L666.985 254.703L667.38 183.497L664.902 277.76L665.106 273.872L640.741 236.577L664.715 281.337L662.445 324.706L662.377 323.555L634.289 284.308L662.292 327.622L662.008 333.045L661.958 333.127L661.981 333.572L656.221 443.604H663.917L664.84 386.771L692.775 343.563L664.909 382.498Z" fill="#3F3D56"/>
<path id="Vector_11" d="M182.232 419.727C178.86 425.105 174.485 424.979 170.541 422.506C166.597 420.034 164.577 416.151 167.949 410.773C171.32 405.395 182.751 403.029 182.751 403.029C182.751 403.029 185.603 414.349 182.232 419.727Z" fill="#6C63FF"/>
<path id="Vector_12" d="M77.2713 434.407C73.8996 439.785 69.5249 439.659 65.5808 437.186C61.6366 434.714 59.6165 430.831 62.9882 425.453C66.36 420.074 77.7908 417.709 77.7908 417.709C77.7908 417.709 80.643 429.028 77.2713 434.407Z" fill="#6C63FF"/>
<path id="Vector_13" d="M449.362 408.535C449.986 414.852 446.448 417.428 441.816 417.886C437.183 418.343 433.21 416.509 432.586 410.192C431.962 403.874 439.556 395.01 439.556 395.01C439.556 395.01 448.738 402.217 449.362 408.535Z" fill="#6C63FF"/>
<path id="Vector_14" d="M328.295 330.18C324.924 335.559 320.549 335.432 316.605 332.96C312.661 330.487 310.641 326.605 314.012 321.226C317.384 315.848 328.815 313.483 328.815 313.483C328.815 313.483 331.667 324.802 328.295 330.18Z" fill="#6C63FF"/>
<path id="Vector_15" d="M607.211 413.121C603.839 418.5 599.465 418.373 595.521 415.9C591.576 413.428 589.556 409.545 592.928 404.167C596.3 398.789 607.731 396.424 607.731 396.424C607.731 396.424 610.583 407.743 607.211 413.121Z" fill="#6C63FF"/>
<path id="Vector_16" d="M1086.87 504.655C1086.87 680.833 1006.88 819.818 908.37 823.655C779.907 828.658 612.013 700.569 729.87 504.655C820.688 353.687 809.787 185.655 908.37 185.655C1006.95 185.655 1086.87 328.476 1086.87 504.655Z" fill="#ACB7D1"/>
<path id="Vector_17" d="M857.87 833.655C945.683 833.655 1016.87 826.043 1016.87 816.655C1016.87 807.266 945.683 799.655 857.87 799.655C770.057 799.655 698.87 807.266 698.87 816.655C698.87 826.043 770.057 833.655 857.87 833.655Z" fill="#3F3D56"/>
<path id="Vector_18" d="M994.362 605.535C994.986 611.852 991.448 614.428 986.816 614.886C982.183 615.343 978.21 613.509 977.586 607.192C976.962 600.874 984.556 592.01 984.556 592.01C984.556 592.01 993.738 599.217 994.362 605.535Z" fill="#6C63FF"/>
<path id="Vector_19" d="M929.271 587.407C925.9 592.785 921.525 592.659 917.581 590.186C913.637 587.714 911.617 583.831 914.988 578.453C918.36 573.074 929.791 570.709 929.791 570.709C929.791 570.709 932.643 582.028 929.271 587.407Z" fill="#6C63FF"/>
<path id="Vector_20" d="M925.613 732.767C925.613 732.767 933.143 765.53 944.872 772.591C956.6 779.652 916.245 793.042 916.245 793.042C916.245 793.042 898.681 803.93 894.119 807.868C889.556 811.805 870.005 820.228 873.227 813.972C876.45 807.716 882.112 795.819 891.052 785.935C899.992 776.051 911.746 758.356 901.507 744.575C891.268 730.794 925.613 732.767 925.613 732.767Z" fill="#FFB9B9"/>
<path id="Vector_21" d="M884.841 334.195L880.895 332.785C880.895 332.785 870.747 331.376 861.444 343.216C852.141 355.055 830.858 390.997 830.858 390.997L822.965 409.602L850.873 410.448L871.874 364.217L884.841 334.195Z" fill="#FF6584"/>
<path id="Vector_22" opacity="0.1" d="M884.841 334.195L880.895 332.785C880.895 332.785 870.747 331.376 861.444 343.216C852.141 355.055 830.858 390.997 830.858 390.997L822.965 409.602L850.873 410.448L871.874 364.217L884.841 334.195Z" fill="black"/>
<path id="Vector_23" d="M880.613 620.459C880.613 620.459 896.54 623.983 893.862 636.246C891.184 648.508 910.494 664.435 912.326 667.113C914.158 669.791 916.836 670.919 915.145 675.006C913.454 679.094 954.469 736.741 946.294 741.956C938.12 747.171 871.874 767.609 865.954 763.521C860.035 759.434 855.242 625.674 855.242 625.674L880.613 620.459Z" fill="#2F2E41"/>
<path id="Vector_24" opacity="0.1" d="M880.613 620.459C880.613 620.459 896.54 623.983 893.862 636.246C891.184 648.508 910.494 664.435 912.326 667.113C914.158 669.791 916.836 670.919 915.145 675.006C913.454 679.094 954.469 736.741 946.294 741.956C938.12 747.171 871.874 767.609 865.954 763.521C860.035 759.434 855.242 625.674 855.242 625.674L880.613 620.459Z" fill="black"/>
<path id="Vector_25" d="M844.389 765.917C844.389 765.917 834.523 798.053 841.148 810.034C847.772 822.014 806.13 813.425 806.13 813.425C806.13 813.425 785.475 814.069 779.555 815.197C773.635 816.324 752.492 813.839 758.411 810.034C764.331 806.228 775.184 798.758 787.869 794.671C800.555 790.583 819.583 781.14 817.609 764.085C815.636 747.03 844.389 765.917 844.389 765.917Z" fill="#FFB9B9"/>
<path id="Vector_26" d="M825.925 444.698C831.386 440.797 837.962 438.77 844.671 438.919C855.524 439.342 891.043 447.799 890.056 449.49C889.083 450.978 887.999 452.392 886.815 453.718C886.815 453.718 889.07 464.008 888.083 464.994C887.096 465.981 907.393 489.237 895.553 539.133C883.714 589.028 884.982 623.56 884.982 623.56C884.982 623.56 889.774 769.864 876.103 772.824C862.431 775.784 808.589 773.81 806.052 768.032C803.515 762.253 813.804 582.826 813.804 582.826C813.804 582.826 814.931 492.62 817.609 481.626C820.287 470.632 825.925 444.698 825.925 444.698Z" fill="#2F2E41"/>
<path id="Vector_27" d="M888.013 317.352C906.773 317.352 921.981 302.144 921.981 283.383C921.981 264.623 906.773 249.415 888.013 249.415C869.252 249.415 854.044 264.623 854.044 283.383C854.044 302.144 869.252 317.352 888.013 317.352Z" fill="#FFB9B9"/>
<path id="Vector_28" d="M882.868 305.864C882.868 305.864 903.869 326.443 877.935 342.37C859.674 353.585 922.051 333.631 922.051 333.631C922.051 333.631 909.084 300.508 911.058 292.897C913.031 285.286 882.868 305.864 882.868 305.864Z" fill="#FFB9B9"/>
<path id="Vector_29" d="M888.083 338.001C888.083 338.001 917.259 324.61 922.051 329.403C926.844 334.195 947.563 353.928 925.011 388.883C902.46 423.838 898.09 450.054 894.285 453.014C890.479 455.974 888.083 449.208 888.083 449.208C888.083 449.208 877.089 439.201 869.901 439.201C862.713 439.201 831.986 442.584 831.986 442.584L840.584 408.474C840.584 408.474 836.355 381.553 850.732 368.163C865.109 354.773 880.895 332.785 880.895 332.785L889.036 331.298L883.66 338.144C883.66 338.144 882.868 340.256 888.083 338.001Z" fill="#FF6584"/>
<path id="Vector_30" d="M965.037 567.475C906.132 545.961 898.354 503.431 914.131 460.235C929.907 417.038 963.264 389.532 1022.17 411.045C1081.07 432.559 1127.44 538.142 1127.44 538.142C1127.44 538.142 1023.94 588.988 965.037 567.475Z" fill="#6C63FF"/>
<path id="Vector_31" d="M924.182 460.676L973.187 479.482L1022 535.094L980.875 482.432L1002.91 490.888L1038.64 529.979L1008.74 493.126L1048.37 508.334L1074.51 545.767L1054.6 510.725L1127.56 537.829L1031.71 499.941L1035.63 501.608L1083.05 490.578L1028.11 498.408L984.438 479.816L985.645 480.178L1036.47 466.057L981.502 478.566L976.04 476.241L975.975 476.158L975.509 476.015L864.706 428.845L861.82 436.745L919.822 459.003L953.706 503.883L924.182 460.676Z" fill="#3F3D56"/>
<path id="Vector_32" d="M820.992 412.421C820.992 412.421 808.448 429.335 816.764 435.677C825.08 442.02 842.557 431.167 842.557 431.167C842.557 431.167 882.868 459.215 882.304 442.725C881.741 426.234 852.846 414.817 852.846 414.817L833.395 415.381L836.355 405.655L828.18 404.81L820.992 412.421Z" fill="#FFB9B9"/>
<path id="Vector_33" opacity="0.1" d="M820.992 412.421C820.992 412.421 808.448 429.335 816.764 435.677C825.08 442.02 842.557 431.167 842.557 431.167C842.557 431.167 882.868 459.215 882.304 442.725C881.741 426.234 852.846 414.817 852.846 414.817L833.395 415.381L836.355 405.655L828.18 404.81L820.992 412.421Z" fill="black"/>
<path id="Vector_34" d="M905.138 379.862C905.138 379.862 825.925 440.892 820.851 419.468C817.553 405.545 820.09 371.261 822.27 348.962C823.829 332.726 831.079 317.565 842.739 306.161C847.492 301.531 851.9 298.626 854.115 300.79C860.316 306.851 839.597 331.094 839.597 331.094C839.597 331.094 836.214 380.285 842.98 385.923C842.98 385.923 867.49 362.255 872.572 362.602C877.653 362.948 905.138 379.862 905.138 379.862Z" fill="#FFB9B9"/>
<path id="Vector_35" d="M957.607 315.146C951.118 305.378 945.76 289.668 939.979 275.831C938.105 271.347 936.393 266.804 934.717 262.242C931.339 253.048 916.632 241.18 897.37 241.18C875.355 241.18 857.508 252.258 857.508 261.554C857.508 269.239 869.712 275.716 886.38 277.731C880.524 290.802 876.996 305.309 876.996 315.146C876.996 337.406 895.041 327.991 917.301 327.991C939.561 327.991 969.924 333.688 957.607 315.146Z" fill="#2F2E41"/>
<path id="Vector_36" d="M922.051 341.806C922.051 341.806 936.146 377.748 904.433 385.923C904.433 385.923 898.231 377.325 888.083 375.915C877.935 374.506 868.914 363.935 868.914 363.935C868.914 363.935 889.633 334.759 905.842 334.195C922.051 333.631 922.051 341.806 922.051 341.806Z" fill="#FF6584"/>
</g>
<defs>
<clipPath id="clip0">
<rect width="1127.56" height="833.655" fill="white"/>
</clipPath>
</defs>
</svg>
