<svg  viewBox="0 0 24 24" fill="none" xmlns="http://www.w3.org/2000/svg">
<g id="Frame">
<g id="Frame_2" clip-path="url(#clip0)">
<g id="sun">
<mask id="mask0" mask-type="alpha" maskUnits="userSpaceOnUse" x="0" y="-1" width="14" height="13">
<path id="masker" d="M10 -1H5.5L2.5 1.5L0.5 6.5L2 11.5L3.5 12L13.5 2.5L10 -1Z" fill="white"/>
</mask>
<g mask="url(#mask0)">
<path id="Vector" fill-rule="evenodd" clip-rule="evenodd" d="M7.5 8.66667C8.6966 8.66667 9.66667 7.6966 9.66667 6.5C9.66667 5.30338 8.6966 4.33333 7.5 4.33333C6.30338 4.33333 5.33333 5.30338 5.33333 6.5C5.33333 7.6966 6.30338 8.66667 7.5 8.66667ZM7.5 9.75C9.29492 9.75 10.75 8.29492 10.75 6.5C10.75 4.70507 9.29492 3.25 7.5 3.25C5.70507 3.25 4.25 4.70507 4.25 6.5C4.25 8.29492 5.70507 9.75 7.5 9.75Z" fill="black"/>
<path id="Vector_2" fill-rule="evenodd" clip-rule="evenodd" d="M6.95833 0H8.04167V2.20019C7.86422 2.17806 7.68346 2.16667 7.5 2.16667C7.31654 2.16667 7.13578 2.17806 6.95833 2.20019V0ZM4.84275 3.07676L3.28677 1.52079L2.52074 2.28682L4.07672 3.84281C4.29913 3.55668 4.55663 3.29918 4.84275 3.07676ZM3.20019 5.95833H1V7.04167H3.20019C3.17806 6.86422 3.16667 6.68346 3.16667 6.5C3.16667 6.31654 3.17806 6.13578 3.20019 5.95833ZM4.07672 9.1572L2.52073 10.7132L3.28677 11.4792L4.84275 9.92323C4.55663 9.70082 4.29913 9.44331 4.07672 9.1572ZM6.95833 10.7998V13H8.04167V10.7998C7.86422 10.822 7.68346 10.8333 7.5 10.8333C7.31654 10.8333 7.13578 10.822 6.95833 10.7998ZM10.1572 9.92328L11.7131 11.4792L12.4792 10.7132L10.9232 9.15726C10.7008 9.44336 10.4433 9.70087 10.1572 9.92328ZM11.7998 7.04167H14V5.95833H11.7998C11.822 6.13578 11.8333 6.31654 11.8333 6.5C11.8333 6.68346 11.822 6.86422 11.7998 7.04167ZM10.9232 3.84275L12.4792 2.28682L11.7131 1.52079L10.1572 3.07672C10.4433 3.29913 10.7008 3.55663 10.9232 3.84275Z" fill="black"/>
</g>
</g>
<path id="house" fill-rule="evenodd" clip-rule="evenodd" d="M8.5 23C7.11929 23 6 21.8888 6 20.5181V12.245C6 12.2169 6.00141 12.1892 6.00415 12.1619H6C6 11.6854 6.19067 11.2284 6.53006 10.8915L11.7322 5.72694C12.7085 4.75769 14.2914 4.75769 15.2677 5.72694L20.4699 10.8915C20.8093 11.2284 21 11.6854 21 12.1619H20.9958C20.9986 12.1892 21 12.2169 21 12.245V20.5181C21 21.8888 19.8807 23 18.5 23H8.5ZM14.0892 6.89692L19.3333 12.1031V20.5181C19.3333 20.9749 18.9602 21.3454 18.5 21.3454H16V17.2089C16 15.8381 14.8807 14.7269 13.5 14.7269C12.1192 14.7269 11 15.8381 11 17.2089V21.3454H8.5C8.03977 21.3454 7.66667 20.9749 7.66667 20.5181V12.1031L12.9107 6.89692C13.2362 6.57384 13.7638 6.57384 14.0892 6.89692Z" fill="black"/>
</g>
</g>
<defs>
<clipPath id="clip0">
<rect width="24" height="24" fill="white"/>
</clipPath>
</defs>
</svg>
